<?xml version="1.0" encoding="UTF-8" standalone="no"?>
<!DOCTYPE svg PUBLIC "-//W3C//DTD SVG 1.1//EN" "http://www.w3.org/Graphics/SVG/1.1/DTD/svg11.dtd">
<svg version="1.1" xmlns="http://www.w3.org/2000/svg" xmlns:xlink="http://www.w3.org/1999/xlink" preserveAspectRatio="xMidYMid meet" viewBox="0 0 640 640" width="640" height="640"><defs><path d="M232.29 395.98C238.08 395.98 242.78 400.68 242.78 406.48C242.78 444.38 242.78 547.58 242.78 585.48C242.78 591.28 238.08 595.98 232.29 595.98C194.39 595.98 91.18 595.98 53.28 595.98C47.49 595.98 42.78 591.28 42.78 585.48C42.78 547.58 42.78 444.38 42.78 406.48C42.78 400.68 47.49 395.98 53.28 395.98C91.18 395.98 194.39 395.98 232.29 395.98Z" id="n5GpViquZd"></path><mask id="maskbL3WubJLZ" x="-37.22" y="315.98" width="360" height="360" maskUnits="userSpaceOnUse"><rect x="-37.22" y="315.98" width="360" height="360" fill="white"></rect><use xlink:href="#n5GpViquZd" opacity="1" fill="black"></use></mask><path d="M595.46 170.53C599.56 174.63 599.56 181.28 595.46 185.38C568.66 212.18 495.69 285.15 468.89 311.95C464.79 316.05 458.14 316.05 454.04 311.95C427.24 285.15 354.27 212.18 327.47 185.38C323.37 181.28 323.37 174.63 327.47 170.53C354.27 143.73 427.24 70.75 454.04 43.95C458.14 39.85 464.79 39.85 468.89 43.95C495.69 70.75 568.66 143.73 595.46 170.53Z" id="c6B1YErP5m"></path><mask id="maska3Ne7tqhNH" x="244.39" y="-39.12" width="434.14" height="434.14" maskUnits="userSpaceOnUse"><rect x="244.39" y="-39.12" width="434.14" height="434.14" fill="white"></rect><use xlink:href="#c6B1YErP5m" opacity="1" fill="black"></use></mask><path d="M513.89 395.98C519.69 395.98 524.39 400.68 524.39 406.48C524.39 444.38 524.39 547.58 524.39 585.48C524.39 591.28 519.69 595.98 513.89 595.98C475.99 595.98 372.79 595.98 334.89 595.98C329.09 595.98 324.39 591.28 324.39 585.48C324.39 547.58 324.39 444.38 324.39 406.48C324.39 400.68 329.09 395.98 334.89 395.98C372.79 395.98 475.99 395.98 513.89 395.98Z" id="e2MTRSUPQ"></path><mask id="maskafauFL6in" x="244.39" y="315.98" width="360" height="360" maskUnits="userSpaceOnUse"><rect x="244.39" y="315.98" width="360" height="360" fill="white"></rect><use xlink:href="#e2MTRSUPQ" opacity="1" fill="black"></use></mask><path d="M232.29 115.02C238.08 115.02 242.78 119.72 242.78 125.52C242.78 163.42 242.78 266.62 242.78 304.52C242.78 310.32 238.08 315.02 232.29 315.02C194.39 315.02 91.18 315.02 53.28 315.02C47.49 315.02 42.78 310.32 42.78 304.52C42.78 266.62 42.78 163.42 42.78 125.52C42.78 119.72 47.49 115.02 53.28 115.02C91.18 115.02 194.39 115.02 232.29 115.02Z" id="a1zvpa28XL"></path><mask id="maska42gvu3Qlp" x="-37.22" y="35.02" width="360" height="360" maskUnits="userSpaceOnUse"><rect x="-37.22" y="35.02" width="360" height="360" fill="white"></rect><use xlink:href="#a1zvpa28XL" opacity="1" fill="black"></use></mask></defs><g><g><g><g><filter id="shadow1278901" x="33.78" y="386.98" width="219" height="219" filterUnits="userSpaceOnUse" primitiveUnits="userSpaceOnUse"><feFlood></feFlood><feComposite in2="SourceAlpha" operator="in"></feComposite><feGaussianBlur stdDeviation="1"></feGaussianBlur><feOffset dx="1" dy="1" result="afterOffset"></feOffset><feFlood flood-color="#000000" flood-opacity="0.5"></feFlood><feComposite in2="afterOffset" operator="in"></feComposite><feMorphology operator="dilate" radius="1"></feMorphology><feComposite in2="SourceAlpha" operator="out"></feComposite></filter><path d="M232.29 395.98C238.08 395.98 242.78 400.68 242.78 406.48C242.78 444.38 242.78 547.58 242.78 585.48C242.78 591.28 238.08 595.98 232.29 595.98C194.39 595.98 91.18 595.98 53.28 595.98C47.49 595.98 42.78 591.28 42.78 585.48C42.78 547.58 42.78 444.38 42.78 406.48C42.78 400.68 47.49 395.98 53.28 395.98C91.18 395.98 194.39 395.98 232.29 395.98Z" id="a9MHRAZkl1" fill="white" fill-opacity="1" filter="url(#shadow1278901)"></path></g><g mask="url(#maskbL3WubJLZ)"><use xlink:href="#n5GpViquZd" opacity="1" fill-opacity="0" stroke="#202020" stroke-width="80" stroke-opacity="1"></use></g></g><g><g><filter id="shadow5951301" x="315.39" y="31.88" width="293.14" height="293.14" filterUnits="userSpaceOnUse" primitiveUnits="userSpaceOnUse"><feFlood></feFlood><feComposite in2="SourceAlpha" operator="in"></feComposite><feGaussianBlur stdDeviation="1"></feGaussianBlur><feOffset dx="1" dy="1" result="afterOffset"></feOffset><feFlood flood-color="#000000" flood-opacity="0.5"></feFlood><feComposite in2="afterOffset" operator="in"></feComposite><feMorphology operator="dilate" radius="1"></feMorphology><feComposite in2="SourceAlpha" operator="out"></feComposite></filter><path d="M595.46 170.53C599.56 174.63 599.56 181.28 595.46 185.38C568.66 212.18 495.69 285.15 468.89 311.95C464.79 316.05 458.14 316.05 454.04 311.95C427.24 285.15 354.27 212.18 327.47 185.38C323.37 181.28 323.37 174.63 327.47 170.53C354.27 143.73 427.24 70.75 454.04 43.95C458.14 39.85 464.79 39.85 468.89 43.95C495.69 70.75 568.66 143.73 595.46 170.53Z" id="d4iiSYWf7F" fill="white" fill-opacity="1" filter="url(#shadow5951301)"></path></g><g mask="url(#maska3Ne7tqhNH)"><use xlink:href="#c6B1YErP5m" opacity="1" fill-opacity="0" stroke="#2c2c2c" stroke-width="80" stroke-opacity="1"></use></g></g><g><g><filter id="shadow446605" x="315.39" y="386.98" width="219" height="219" filterUnits="userSpaceOnUse" primitiveUnits="userSpaceOnUse"><feFlood></feFlood><feComposite in2="SourceAlpha" operator="in"></feComposite><feGaussianBlur stdDeviation="1"></feGaussianBlur><feOffset dx="1" dy="1" result="afterOffset"></feOffset><feFlood flood-color="#000000" flood-opacity="0.5"></feFlood><feComposite in2="afterOffset" operator="in"></feComposite><feMorphology operator="dilate" radius="1"></feMorphology><feComposite in2="SourceAlpha" operator="out"></feComposite></filter><path d="M513.89 395.98C519.69 395.98 524.39 400.68 524.39 406.48C524.39 444.38 524.39 547.58 524.39 585.48C524.39 591.28 519.69 595.98 513.89 595.98C475.99 595.98 372.79 595.98 334.89 595.98C329.09 595.98 324.39 591.28 324.39 585.48C324.39 547.58 324.39 444.38 324.39 406.48C324.39 400.68 329.09 395.98 334.89 395.98C372.79 395.98 475.99 395.98 513.89 395.98Z" id="azSjJ8afo" fill="white" fill-opacity="1" filter="url(#shadow446605)"></path></g><g mask="url(#maskafauFL6in)"><use xlink:href="#e2MTRSUPQ" opacity="1" fill-opacity="0" stroke="#202020" stroke-width="80" stroke-opacity="1"></use></g></g><g><g><filter id="shadow6548566" x="33.78" y="106.02" width="219" height="219" filterUnits="userSpaceOnUse" primitiveUnits="userSpaceOnUse"><feFlood></feFlood><feComposite in2="SourceAlpha" operator="in"></feComposite><feGaussianBlur stdDeviation="1"></feGaussianBlur><feOffset dx="1" dy="1" result="afterOffset"></feOffset><feFlood flood-color="#000000" flood-opacity="0.5"></feFlood><feComposite in2="afterOffset" operator="in"></feComposite><feMorphology operator="dilate" radius="1"></feMorphology><feComposite in2="SourceAlpha" operator="out"></feComposite></filter><path d="M232.29 115.02C238.08 115.02 242.78 119.72 242.78 125.52C242.78 163.42 242.78 266.62 242.78 304.52C242.78 310.32 238.08 315.02 232.29 315.02C194.39 315.02 91.18 315.02 53.28 315.02C47.49 315.02 42.78 310.32 42.78 304.52C42.78 266.62 42.78 163.42 42.78 125.52C42.78 119.72 47.49 115.02 53.28 115.02C91.18 115.02 194.39 115.02 232.29 115.02Z" id="asq1hudBm" fill="white" fill-opacity="1" filter="url(#shadow6548566)"></path></g><g mask="url(#maska42gvu3Qlp)"><use xlink:href="#a1zvpa28XL" opacity="1" fill-opacity="0" stroke="#202020" stroke-width="80" stroke-opacity="1"></use></g></g></g></g></svg>