<?xml version="1.0" encoding="UTF-8" standalone="no"?>
<!DOCTYPE svg PUBLIC "-//W3C//DTD SVG 1.1//EN" "http://www.w3.org/Graphics/SVG/1.1/DTD/svg11.dtd">
<svg version="1.1" xmlns="http://www.w3.org/2000/svg" xmlns:xlink="http://www.w3.org/1999/xlink" preserveAspectRatio="xMidYMid meet" viewBox="0 0 640 640" width="640" height="640"><defs><path d="M232.29 395.98C238.08 395.98 242.78 400.68 242.78 406.48C242.78 444.38 242.78 547.58 242.78 585.48C242.78 591.28 238.08 595.98 232.29 595.98C194.39 595.98 91.18 595.98 53.28 595.98C47.49 595.98 42.78 591.28 42.78 585.48C42.78 547.58 42.78 444.38 42.78 406.48C42.78 400.68 47.49 395.98 53.28 395.98C91.18 395.98 194.39 395.98 232.29 395.98Z" id="gbrD0jnH1"></path><mask id="maskaaKF0PBE" x="-37.22" y="315.98" width="360" height="360" maskUnits="userSpaceOnUse"><rect x="-37.22" y="315.98" width="360" height="360" fill="white"></rect><use xlink:href="#gbrD0jnH1" opacity="1" fill="black"></use></mask><path d="M596.46 170.53C600.56 174.63 600.56 181.28 596.46 185.38C569.66 212.18 496.69 285.15 469.89 311.95C465.79 316.05 459.14 316.05 455.04 311.95C428.24 285.15 355.27 212.18 328.47 185.38C324.37 181.28 324.37 174.63 328.47 170.53C355.27 143.73 428.24 70.75 455.04 43.95C459.14 39.85 465.79 39.85 469.89 43.95C496.69 70.75 569.66 143.73 596.46 170.53Z" id="l6c3fhv4Ge"></path><mask id="maska2u4FE28VA" x="245.39" y="-39.12" width="434.14" height="434.14" maskUnits="userSpaceOnUse"><rect x="245.39" y="-39.12" width="434.14" height="434.14" fill="white"></rect><use xlink:href="#l6c3fhv4Ge" opacity="1" fill="black"></use></mask><path d="M514.89 395.98C520.69 395.98 525.39 400.68 525.39 406.48C525.39 444.38 525.39 547.58 525.39 585.48C525.39 591.28 520.69 595.98 514.89 595.98C476.99 595.98 373.79 595.98 335.89 595.98C330.09 595.98 325.39 591.28 325.39 585.48C325.39 547.58 325.39 444.38 325.39 406.48C325.39 400.68 330.09 395.98 335.89 395.98C373.79 395.98 476.99 395.98 514.89 395.98Z" id="cZrnp9vhY"></path><mask id="maskf1RnrbdLI9" x="245.39" y="315.98" width="360" height="360" maskUnits="userSpaceOnUse"><rect x="245.39" y="315.98" width="360" height="360" fill="white"></rect><use xlink:href="#cZrnp9vhY" opacity="1" fill="black"></use></mask><path d="M232.29 115.02C238.08 115.02 242.78 119.72 242.78 125.52C242.78 163.42 242.78 266.62 242.78 304.52C242.78 310.32 238.08 315.02 232.29 315.02C194.39 315.02 91.18 315.02 53.28 315.02C47.49 315.02 42.78 310.32 42.78 304.52C42.78 266.62 42.78 163.42 42.78 125.52C42.78 119.72 47.49 115.02 53.28 115.02C91.18 115.02 194.39 115.02 232.29 115.02Z" id="a4SImiYAgl"></path><mask id="maskb9XKJpJ2TF" x="-37.22" y="35.02" width="360" height="360" maskUnits="userSpaceOnUse"><rect x="-37.22" y="35.02" width="360" height="360" fill="white"></rect><use xlink:href="#a4SImiYAgl" opacity="1" fill="black"></use></mask></defs><g><g><g><g><filter id="shadow2734660" x="33.78" y="386.98" width="219" height="219" filterUnits="userSpaceOnUse" primitiveUnits="userSpaceOnUse"><feFlood></feFlood><feComposite in2="SourceAlpha" operator="in"></feComposite><feGaussianBlur stdDeviation="1"></feGaussianBlur><feOffset dx="1" dy="1" result="afterOffset"></feOffset><feFlood flood-color="#000000" flood-opacity="0.5"></feFlood><feComposite in2="afterOffset" operator="in"></feComposite><feMorphology operator="dilate" radius="1"></feMorphology><feComposite in2="SourceAlpha" operator="out"></feComposite></filter><path d="M232.29 395.98C238.08 395.98 242.78 400.68 242.78 406.48C242.78 444.38 242.78 547.58 242.78 585.48C242.78 591.28 238.08 595.98 232.29 595.98C194.39 595.98 91.18 595.98 53.28 595.98C47.49 595.98 42.78 591.28 42.78 585.48C42.78 547.58 42.78 444.38 42.78 406.48C42.78 400.68 47.49 395.98 53.28 395.98C91.18 395.98 194.39 395.98 232.29 395.98Z" id="c19KoNoUxP" fill="white" fill-opacity="1" filter="url(#shadow2734660)"></path></g><g mask="url(#maskaaKF0PBE)"><use xlink:href="#gbrD0jnH1" opacity="1" fill-opacity="0" stroke="#ffffff" stroke-width="80" stroke-opacity="1"></use></g></g><g><g><filter id="shadow8929380" x="316.39" y="31.88" width="293.14" height="293.14" filterUnits="userSpaceOnUse" primitiveUnits="userSpaceOnUse"><feFlood></feFlood><feComposite in2="SourceAlpha" operator="in"></feComposite><feGaussianBlur stdDeviation="1"></feGaussianBlur><feOffset dx="1" dy="1" result="afterOffset"></feOffset><feFlood flood-color="#000000" flood-opacity="0.5"></feFlood><feComposite in2="afterOffset" operator="in"></feComposite><feMorphology operator="dilate" radius="1"></feMorphology><feComposite in2="SourceAlpha" operator="out"></feComposite></filter><path d="M596.46 170.53C600.56 174.63 600.56 181.28 596.46 185.38C569.66 212.18 496.69 285.15 469.89 311.95C465.79 316.05 459.14 316.05 455.04 311.95C428.24 285.15 355.27 212.18 328.47 185.38C324.37 181.28 324.37 174.63 328.47 170.53C355.27 143.73 428.24 70.75 455.04 43.95C459.14 39.85 465.79 39.85 469.89 43.95C496.69 70.75 569.66 143.73 596.46 170.53Z" id="c4fC4Uiay" fill="white" fill-opacity="1" filter="url(#shadow8929380)"></path></g><g mask="url(#maska2u4FE28VA)"><use xlink:href="#l6c3fhv4Ge" opacity="1" fill-opacity="0" stroke="#ff4000" stroke-width="80" stroke-opacity="1"></use></g></g><g><g><filter id="shadow835975" x="316.39" y="386.98" width="219" height="219" filterUnits="userSpaceOnUse" primitiveUnits="userSpaceOnUse"><feFlood></feFlood><feComposite in2="SourceAlpha" operator="in"></feComposite><feGaussianBlur stdDeviation="1"></feGaussianBlur><feOffset dx="1" dy="1" result="afterOffset"></feOffset><feFlood flood-color="#000000" flood-opacity="0.5"></feFlood><feComposite in2="afterOffset" operator="in"></feComposite><feMorphology operator="dilate" radius="1"></feMorphology><feComposite in2="SourceAlpha" operator="out"></feComposite></filter><path d="M514.89 395.98C520.69 395.98 525.39 400.68 525.39 406.48C525.39 444.38 525.39 547.58 525.39 585.48C525.39 591.28 520.69 595.98 514.89 595.98C476.99 595.98 373.79 595.98 335.89 595.98C330.09 595.98 325.39 591.28 325.39 585.48C325.39 547.58 325.39 444.38 325.39 406.48C325.39 400.68 330.09 395.98 335.89 395.98C373.79 395.98 476.99 395.98 514.89 395.98Z" id="b7kfLitog" fill="white" fill-opacity="1" filter="url(#shadow835975)"></path></g><g mask="url(#maskf1RnrbdLI9)"><use xlink:href="#cZrnp9vhY" opacity="1" fill-opacity="0" stroke="#ffffff" stroke-width="80" stroke-opacity="1"></use></g></g><g><g><filter id="shadow3030650" x="33.78" y="106.02" width="219" height="219" filterUnits="userSpaceOnUse" primitiveUnits="userSpaceOnUse"><feFlood></feFlood><feComposite in2="SourceAlpha" operator="in"></feComposite><feGaussianBlur stdDeviation="1"></feGaussianBlur><feOffset dx="1" dy="1" result="afterOffset"></feOffset><feFlood flood-color="#000000" flood-opacity="0.5"></feFlood><feComposite in2="afterOffset" operator="in"></feComposite><feMorphology operator="dilate" radius="1"></feMorphology><feComposite in2="SourceAlpha" operator="out"></feComposite></filter><path d="M232.29 115.02C238.08 115.02 242.78 119.72 242.78 125.52C242.78 163.42 242.78 266.62 242.78 304.52C242.78 310.32 238.08 315.02 232.29 315.02C194.39 315.02 91.18 315.02 53.28 315.02C47.49 315.02 42.78 310.32 42.78 304.52C42.78 266.62 42.78 163.42 42.78 125.52C42.78 119.72 47.49 115.02 53.28 115.02C91.18 115.02 194.39 115.02 232.29 115.02Z" id="bkMgGxK2" fill="white" fill-opacity="1" filter="url(#shadow3030650)"></path></g><g mask="url(#maskb9XKJpJ2TF)"><use xlink:href="#a4SImiYAgl" opacity="1" fill-opacity="0" stroke="#ffffff" stroke-width="80" stroke-opacity="1"></use></g></g></g></g></svg>